<?xml version="1.0" encoding="UTF-8" standalone="no"?>
<svg
   xmlns:dc="http://purl.org/dc/elements/1.1/"
   xmlns:cc="http://creativecommons.org/ns#"
   xmlns:rdf="http://www.w3.org/1999/02/22-rdf-syntax-ns#"
   xmlns:svg="http://www.w3.org/2000/svg"
   xmlns="http://www.w3.org/2000/svg"
   xmlns:sodipodi="http://sodipodi.sourceforge.net/DTD/sodipodi-0.dtd"
   xmlns:inkscape="http://www.inkscape.org/namespaces/inkscape"
   width="494.0"
   height="600.0"
   id="svg4651"
   version="1.1"
   inkscape:version="0.48.5 r10040"
   sodipodi:docname="Kepler_orbits.svg">
  <metadata
     id="metadata4675">
    <rdf:RDF>
      <cc:Work
         rdf:about="">
        <dc:format>image/svg+xml</dc:format>
        <dc:type
           rdf:resource="http://purl.org/dc/dcmitype/StillImage" />
      </cc:Work>
    </rdf:RDF>
  </metadata>
  <defs
     id="defs4673" />
  <sodipodi:namedview
     pagecolor="#ffffff"
     bordercolor="#666666"
     borderopacity="1"
     objecttolerance="10"
     gridtolerance="10"
     guidetolerance="10"
     inkscape:pageopacity="0"
     inkscape:pageshadow="2"
     inkscape:window-width="1024"
     inkscape:window-height="673"
     id="namedview4671"
     showgrid="false"
     inkscape:zoom="2.2250293"
     inkscape:cx="199.65246"
     inkscape:cy="317.97729"
     inkscape:window-x="0"
     inkscape:window-y="33"
     inkscape:window-maximized="1"
     inkscape:current-layer="svg4651" />
  <polyline
     points="  10.0,590.0   10.0, 10.0  484.0, 10.0  484.0,590.0   10.0,590.0  "
     fill="none"
     stroke-width="1.0"
     stroke="black"
     id="polyline4653" />
  <text
     x="286.3"
     y="313.0"
     font-size="8.0"
     id="text4657">
Focal point                             </text>
  <polyline
     points="  306.3,300.0  454.4,300.0  "
     id="polyline4659"
     style="fill:none;stroke:#000000;stroke-width:1" />
  <circle
     cx="306.3"
     cy="300.0"
     r="4.0"
     fill="black"
     id="circle4661" />
  <polyline
     points=" 108.8,300.0  108.9,303.4  109.2,306.8  109.7,310.1  110.4,313.4  111.2,316.7  112.3,320.0  113.6,323.2  115.0,326.4  116.7,329.5  118.5,332.5  120.4,335.5  122.5,338.3  124.8,341.1  127.1,343.8  129.6,346.5  132.3,349.0  135.0,351.4  137.8,353.7  140.7,356.0  143.7,358.1  146.8,360.1  149.9,362.0  153.1,363.8  156.3,365.5  159.6,367.2  162.9,368.7  166.2,370.1  169.5,371.4  172.9,372.6  176.2,373.7  179.6,374.8  182.9,375.7  186.2,376.6  189.5,377.4  192.8,378.0  196.0,378.7  199.3,379.2  202.5,379.7  205.6,380.1  208.7,380.4  211.8,380.7  214.8,380.9  217.8,381.1  220.8,381.2  223.7,381.2  226.5,381.2  229.3,381.2  232.0,381.1  234.7,380.9  237.4,380.7  240.0,380.5  242.5,380.3  245.0,380.0  247.4,379.7  249.8,379.3  252.2,379.0  254.5,378.5  256.7,378.1  258.9,377.7  261.0,377.2  263.1,376.7  265.2,376.2  267.2,375.7  269.1,375.1  271.0,374.5  272.9,374.0  274.7,373.4  276.5,372.8  278.2,372.2  279.9,371.5  281.6,370.9  283.2,370.3  284.8,369.6  286.3,368.9  287.8,368.3  289.3,367.6  290.7,366.9  292.1,366.2  293.5,365.6  294.8,364.9  296.1,364.2  297.4,363.5  298.6,362.8  299.8,362.1  301.0,361.4  302.2,360.7  303.3,360.0  304.4,359.2  305.5,358.5  306.5,357.8  307.5,357.1  308.5,356.4  309.5,355.7  310.4,355.0  311.4,354.3  312.3,353.6  313.1,352.9  314.0,352.1  314.8,351.4  315.6,350.7  316.4,350.0  317.2,349.3  318.0,348.6  318.7,347.9  319.4,347.2  320.1,346.5  320.8,345.8  321.5,345.1  322.2,344.5  322.8,343.8  323.4,343.1  324.0,342.4  324.6,341.7  325.2,341.0  325.8,340.3  326.3,339.7  326.8,339.0  327.4,338.3  327.9,337.7  328.4,337.0  328.8,336.3  329.3,335.7  329.8,335.0  330.2,334.3  330.6,333.7  331.1,333.0  331.5,332.4  331.9,331.7  332.3,331.1  332.7,330.4  333.0,329.8  333.4,329.1  333.7,328.5  334.1,327.8  334.4,327.2  334.7,326.6  335.0,325.9  335.3,325.3  335.6,324.7  335.9,324.0  336.2,323.4  336.4,322.8  336.7,322.1  337.0,321.5  337.2,320.9  337.4,320.3  337.7,319.7  337.9,319.0  338.1,318.4  338.3,317.8  338.5,317.2  338.7,316.6  338.8,316.0  339.0,315.3  339.2,314.7  339.3,314.1  339.5,313.5  339.6,312.9  339.8,312.3  339.9,311.7  340.0,311.1  340.1,310.5  340.2,309.9  340.3,309.3  340.4,308.7  340.5,308.1  340.6,307.5  340.7,306.9  340.8,306.3  340.8,305.7  340.9,305.1  340.9,304.5  341.0,303.9  341.0,303.3  341.0,302.7  341.1,302.1  341.1,301.5  341.1,300.9  341.1,300.3  341.1,299.7  341.1,299.1  341.1,298.5  341.1,297.9  341.0,297.3  341.0,296.7  341.0,296.1  340.9,295.5  340.9,294.9  340.8,294.3  340.8,293.7  340.7,293.1  340.6,292.5  340.5,291.9  340.4,291.3  340.3,290.7  340.2,290.1  340.1,289.5  340.0,288.9  339.9,288.3  339.8,287.7  339.6,287.1  339.5,286.5  339.3,285.9  339.2,285.3  339.0,284.7  338.8,284.0  338.7,283.4  338.5,282.8  338.3,282.2  338.1,281.6  337.9,281.0  337.7,280.3  337.4,279.7  337.2,279.1  337.0,278.5  336.7,277.9  336.4,277.2  336.2,276.6  335.9,276.0  335.6,275.3  335.3,274.7  335.0,274.1  334.7,273.4  334.4,272.8  334.1,272.2  333.7,271.5  333.4,270.9  333.0,270.2  332.7,269.6  332.3,268.9  331.9,268.3  331.5,267.6  331.1,267.0  330.6,266.3  330.2,265.7  329.8,265.0  329.3,264.3  328.8,263.7  328.4,263.0  327.9,262.3  327.4,261.7  326.8,261.0  326.3,260.3  325.8,259.7  325.2,259.0  324.6,258.3  324.0,257.6  323.4,256.9  322.8,256.2  322.2,255.5  321.5,254.9  320.8,254.2  320.1,253.5  319.4,252.8  318.7,252.1  318.0,251.4  317.2,250.7  316.4,250.0  315.6,249.3  314.8,248.6  314.0,247.9  313.1,247.1  312.3,246.4  311.4,245.7  310.4,245.0  309.5,244.3  308.5,243.6  307.5,242.9  306.5,242.2  305.5,241.5  304.4,240.8  303.3,240.0  302.2,239.3  301.0,238.6  299.8,237.9  298.6,237.2  297.4,236.5  296.1,235.8  294.8,235.1  293.5,234.4  292.1,233.8  290.7,233.1  289.3,232.4  287.8,231.7  286.3,231.1  284.8,230.4  283.2,229.7  281.6,229.1  279.9,228.5  278.2,227.8  276.5,227.2  274.7,226.6  272.9,226.0  271.0,225.5  269.1,224.9  267.2,224.3  265.2,223.8  263.1,223.3  261.0,222.8  258.9,222.3  256.7,221.9  254.5,221.5  252.2,221.0  249.8,220.7  247.4,220.3  245.0,220.0  242.5,219.7  240.0,219.5  237.4,219.3  234.7,219.1  232.0,218.9  229.3,218.8  226.5,218.8  223.7,218.8  220.8,218.8  217.8,218.9  214.8,219.1  211.8,219.3  208.7,219.6  205.6,219.9  202.5,220.3  199.3,220.8  196.0,221.3  192.8,222.0  189.5,222.6  186.2,223.4  182.9,224.3  179.6,225.2  176.2,226.3  172.9,227.4  169.5,228.6  166.2,229.9  162.9,231.3  159.6,232.8  156.3,234.5  153.1,236.2  149.9,238.0  146.8,239.9  143.7,241.9  140.7,244.0  137.8,246.3  135.0,248.6  132.3,251.0  129.6,253.5  127.1,256.2  124.8,258.9  122.5,261.7  120.4,264.5  118.5,267.5  116.7,270.5  115.0,273.6  113.6,276.8  112.3,280.0  111.2,283.3  110.4,286.6  109.7,289.9  109.2,293.2  108.9,296.6  108.8,300.0  "
     fill="none"
     stroke-width="2.0"
     stroke="red"
     id="polyline4665" />
  <polyline
     points="  18.0,564.2   34.9,557.6   50.7,551.3   65.5,545.2   79.3,539.4   92.2,533.8  104.4,528.4  115.9,523.2  126.7,518.2  136.8,513.4  146.4,508.7  155.5,504.2  164.1,499.9  172.2,495.7  179.9,491.6  187.2,487.7  194.1,483.9  200.7,480.2  206.9,476.6  212.9,473.2  218.5,469.8  223.9,466.5  229.1,463.3  234.0,460.2  238.7,457.2  243.2,454.2  247.5,451.4  251.6,448.6  255.5,445.8  259.3,443.2  262.9,440.6  266.4,438.0  269.7,435.5  272.9,433.1  275.9,430.7  278.9,428.4  281.7,426.2  284.4,423.9  287.1,421.8  289.6,419.6  292.0,417.5  294.3,415.5  296.6,413.5  298.8,411.5  300.9,409.5  302.9,407.6  304.8,405.8  306.7,403.9  308.5,402.1  310.3,400.4  312.0,398.6  313.6,396.9  315.2,395.2  316.7,393.6  318.2,391.9  319.7,390.3  321.1,388.7  322.4,387.2  323.7,385.6  325.0,384.1  326.2,382.6  327.4,381.1  328.5,379.7  329.6,378.3  330.7,376.8  331.7,375.4  332.7,374.1  333.7,372.7  334.7,371.3  335.6,370.0  336.5,368.7  337.4,367.4  338.2,366.1  339.0,364.8  339.8,363.6  340.6,362.3  341.3,361.1  342.0,359.9  342.7,358.7  343.4,357.5  344.1,356.3  344.7,355.1  345.3,353.9  345.9,352.8  346.5,351.7  347.1,350.5  347.6,349.4  348.2,348.3  348.7,347.2  349.2,346.1  349.7,345.0  350.1,343.9  350.6,342.8  351.0,341.8  351.5,340.7  351.9,339.7  352.3,338.6  352.7,337.6  353.0,336.6  353.4,335.5  353.7,334.5  354.1,333.5  354.4,332.5  354.7,331.5  355.0,330.5  355.3,329.5  355.6,328.5  355.9,327.6  356.1,326.6  356.4,325.6  356.6,324.7  356.8,323.7  357.0,322.7  357.3,321.8  357.5,320.8  357.6,319.9  357.8,318.9  358.0,318.0  358.2,317.1  358.3,316.1  358.4,315.2  358.6,314.2  358.7,313.3  358.8,312.4  358.9,311.5  359.0,310.5  359.1,309.6  359.2,308.7  359.3,307.8  359.3,306.9  359.4,305.9  359.5,305.0  359.5,304.1  359.5,303.2  359.5,302.3  359.6,301.4  359.6,300.5  359.6,299.5  359.6,298.6  359.5,297.7  359.5,296.8  359.5,295.9  359.5,295.0  359.4,294.1  359.3,293.1  359.3,292.2  359.2,291.3  359.1,290.4  359.0,289.5  358.9,288.5  358.8,287.6  358.7,286.7  358.6,285.8  358.4,284.8  358.3,283.9  358.2,282.9  358.0,282.0  357.8,281.1  357.6,280.1  357.5,279.2  357.3,278.2  357.0,277.3  356.8,276.3  356.6,275.3  356.4,274.4  356.1,273.4  355.9,272.4  355.6,271.5  355.3,270.5  355.0,269.5  354.7,268.5  354.4,267.5  354.1,266.5  353.7,265.5  353.4,264.5  353.0,263.4  352.7,262.4  352.3,261.4  351.9,260.3  351.5,259.3  351.0,258.2  350.6,257.2  350.1,256.1  349.7,255.0  349.2,253.9  348.7,252.8  348.2,251.7  347.6,250.6  347.1,249.5  346.5,248.3  345.9,247.2  345.3,246.1  344.7,244.9  344.1,243.7  343.4,242.5  342.7,241.3  342.0,240.1  341.3,238.9  340.6,237.7  339.8,236.4  339.0,235.2  338.2,233.9  337.4,232.6  336.5,231.3  335.6,230.0  334.7,228.7  333.7,227.3  332.7,225.9  331.7,224.6  330.7,223.2  329.6,221.7  328.5,220.3  327.4,218.9  326.2,217.4  325.0,215.9  323.7,214.4  322.4,212.8  321.1,211.3  319.7,209.7  318.2,208.1  316.7,206.4  315.2,204.8  313.6,203.1  312.0,201.4  310.3,199.6  308.5,197.9  306.7,196.1  304.8,194.2  302.9,192.4  300.9,190.5  298.8,188.5  296.6,186.5  294.3,184.5  292.0,182.5  289.6,180.4  287.1,178.2  284.4,176.1  281.7,173.8  278.9,171.6  275.9,169.3  272.9,166.9  269.7,164.5  266.4,162.0  262.9,159.4  259.3,156.8  255.5,154.2  251.6,151.4  247.5,148.6  243.2,145.8  238.7,142.8  234.0,139.8  229.1,136.7  223.9,133.5  218.5,130.2  212.9,126.8  206.9,123.4  200.7,119.8  194.1,116.1  187.2,112.3  179.9,108.4  172.2,104.3  164.1,100.1  155.5, 95.8  146.4, 91.3  136.8, 86.6  126.7, 81.8  115.9, 76.8  104.4, 71.6   92.2, 66.2   79.3, 60.6   65.5, 54.8   50.7, 48.7   34.9, 42.4   18.0, 35.8  "
     fill="none"
     stroke-width="2.0"
     stroke="green"
     id="polyline4667" />
  <polyline
     points=" 194.4,581.9  203.6,572.8  212.1,564.3  220.1,556.2  227.6,548.5  234.6,541.3  241.1,534.5  247.3,527.9  253.1,521.7  258.6,515.8  263.7,510.1  268.6,504.7  273.2,499.5  277.6,494.5  281.8,489.7  285.7,485.1  289.5,480.7  293.0,476.4  296.4,472.3  299.7,468.3  302.8,464.5  305.7,460.7  308.5,457.1  311.2,453.7  313.8,450.3  316.3,447.0  318.7,443.8  320.9,440.7  323.1,437.7  325.2,434.7  327.2,431.9  329.1,429.1  331.0,426.3  332.7,423.7  334.5,421.1  336.1,418.5  337.7,416.1  339.2,413.6  340.7,411.3  342.1,408.9  343.5,406.7  344.8,404.4  346.1,402.3  347.3,400.1  348.5,398.0  349.6,395.9  350.7,393.9  351.8,391.9  352.8,389.9  353.8,388.0  354.8,386.1  355.7,384.2  356.6,382.4  357.5,380.6  358.3,378.8  359.1,377.0  359.9,375.3  360.7,373.6  361.4,371.9  362.1,370.2  362.8,368.6  363.4,367.0  364.1,365.4  364.7,363.8  365.3,362.2  365.9,360.7  366.4,359.1  367.0,357.6  367.5,356.1  368.0,354.6  368.5,353.1  369.0,351.7  369.4,350.2  369.9,348.8  370.3,347.4  370.7,346.0  371.1,344.6  371.5,343.2  371.8,341.8  372.2,340.4  372.5,339.1  372.8,337.7  373.2,336.4  373.5,335.1  373.7,333.7  374.0,332.4  374.3,331.1  374.5,329.8  374.8,328.5  375.0,327.2  375.2,326.0  375.4,324.7  375.6,323.4  375.8,322.2  376.0,320.9  376.1,319.7  376.3,318.4  376.4,317.2  376.5,315.9  376.7,314.7  376.8,313.4  376.9,312.2  377.0,311.0  377.0,309.8  377.1,308.5  377.2,307.3  377.2,306.1  377.3,304.9  377.3,303.7  377.3,302.4  377.3,301.2  377.4,300.0  377.3,298.8  377.3,297.6  377.3,296.3  377.3,295.1  377.2,293.9  377.2,292.7  377.1,291.5  377.0,290.2  377.0,289.0  376.9,287.8  376.8,286.6  376.7,285.3  376.5,284.1  376.4,282.8  376.3,281.6  376.1,280.3  376.0,279.1  375.8,277.8  375.6,276.6  375.4,275.3  375.2,274.0  375.0,272.8  374.8,271.5  374.5,270.2  374.3,268.9  374.0,267.6  373.7,266.3  373.5,264.9  373.2,263.6  372.8,262.3  372.5,260.9  372.2,259.6  371.8,258.2  371.5,256.8  371.1,255.4  370.7,254.0  370.3,252.6  369.9,251.2  369.4,249.8  369.0,248.3  368.5,246.9  368.0,245.4  367.5,243.9  367.0,242.4  366.4,240.9  365.9,239.3  365.3,237.8  364.7,236.2  364.1,234.6  363.4,233.0  362.8,231.4  362.1,229.8  361.4,228.1  360.7,226.4  359.9,224.7  359.1,223.0  358.3,221.2  357.5,219.4  356.6,217.6  355.7,215.8  354.8,213.9  353.8,212.0  352.8,210.1  351.8,208.1  350.7,206.1  349.6,204.1  348.5,202.0  347.3,199.9  346.1,197.7  344.8,195.6  343.5,193.3  342.1,191.1  340.7,188.7  339.2,186.4  337.7,183.9  336.1,181.5  334.5,178.9  332.7,176.3  331.0,173.7  329.1,170.9  327.2,168.1  325.2,165.3  323.1,162.3  320.9,159.3  318.7,156.2  316.3,153.0  313.8,149.7  311.2,146.3  308.5,142.9  305.7,139.3  302.8,135.5  299.7,131.7  296.4,127.7  293.0,123.6  289.5,119.3  285.7,114.9  281.8,110.3  277.6,105.5  273.2,100.5  268.6, 95.3  263.7, 89.9  258.6, 84.2  253.1, 78.3  247.3, 72.1  241.1, 65.5  234.6, 58.7  227.6, 51.5  220.1, 43.8  212.1, 35.7  203.6, 27.2  194.4, 18.1  "
     fill="none"
     stroke-width="2.0"
     stroke="blue"
     id="polyline4669" />
  <text
     style="font-size:8px"
     x="382.34256"
     y="309.17719"
     font-size="8.0"
     id="text4657-7">Reference Direction</text>
  <text
     style="font-size:8px"
     x="217.40092"
     y="230.52654"
     font-size="8.0"
     id="text4657-9">e=0.7</text>
  <text
     style="font-size:8px"
     x="234.38094"
     y="161.56963"
     font-size="8.0"
     id="text4657-9-2">e=1</text>
  <text
     style="font-size:8px"
     x="255.50424"
     y="118.42413"
     font-size="8.0"
     id="text4657-9-0">e=1.3</text>
  <polyline
     transform="matrix(0.42609037,0,0,0.60948763,208.83188,118.25633)"
     style="fill:none;stroke:#ff00ff;stroke-width:2"
     points=" 108.8,300.0  108.9,303.4  109.2,306.8  109.7,310.1  110.4,313.4  111.2,316.7  112.3,320.0  113.6,323.2  115.0,326.4  116.7,329.5  118.5,332.5  120.4,335.5  122.5,338.3  124.8,341.1  127.1,343.8  129.6,346.5  132.3,349.0  135.0,351.4  137.8,353.7  140.7,356.0  143.7,358.1  146.8,360.1  149.9,362.0  153.1,363.8  156.3,365.5  159.6,367.2  162.9,368.7  166.2,370.1  169.5,371.4  172.9,372.6  176.2,373.7  179.6,374.8  182.9,375.7  186.2,376.6  189.5,377.4  192.8,378.0  196.0,378.7  199.3,379.2  202.5,379.7  205.6,380.1  208.7,380.4  211.8,380.7  214.8,380.9  217.8,381.1  220.8,381.2  223.7,381.2  226.5,381.2  229.3,381.2  232.0,381.1  234.7,380.9  237.4,380.7  240.0,380.5  242.5,380.3  245.0,380.0  247.4,379.7  249.8,379.3  252.2,379.0  254.5,378.5  256.7,378.1  258.9,377.7  261.0,377.2  263.1,376.7  265.2,376.2  267.2,375.7  269.1,375.1  271.0,374.5  272.9,374.0  274.7,373.4  276.5,372.8  278.2,372.2  279.9,371.5  281.6,370.9  283.2,370.3  284.8,369.6  286.3,368.9  287.8,368.3  289.3,367.6  290.7,366.9  292.1,366.2  293.5,365.6  294.8,364.9  296.1,364.2  297.4,363.5  298.6,362.8  299.8,362.1  301.0,361.4  302.2,360.7  303.3,360.0  304.4,359.2  305.5,358.5  306.5,357.8  307.5,357.1  308.5,356.4  309.5,355.7  310.4,355.0  311.4,354.3  312.3,353.6  313.1,352.9  314.0,352.1  314.8,351.4  315.6,350.7  316.4,350.0  317.2,349.3  318.0,348.6  318.7,347.9  319.4,347.2  320.1,346.5  320.8,345.8  321.5,345.1  322.2,344.5  322.8,343.8  323.4,343.1  324.0,342.4  324.6,341.7  325.2,341.0  325.8,340.3  326.3,339.7  326.8,339.0  327.4,338.3  327.9,337.7  328.4,337.0  328.8,336.3  329.3,335.7  329.8,335.0  330.2,334.3  330.6,333.7  331.1,333.0  331.5,332.4  331.9,331.7  332.3,331.1  332.7,330.4  333.0,329.8  333.4,329.1  333.7,328.5  334.1,327.8  334.4,327.2  334.7,326.6  335.0,325.9  335.3,325.3  335.6,324.7  335.9,324.0  336.2,323.4  336.4,322.8  336.7,322.1  337.0,321.5  337.2,320.9  337.4,320.3  337.7,319.7  337.9,319.0  338.1,318.4  338.3,317.8  338.5,317.2  338.7,316.6  338.8,316.0  339.0,315.3  339.2,314.7  339.3,314.1  339.5,313.5  339.6,312.9  339.8,312.3  339.9,311.7  340.0,311.1  340.1,310.5  340.2,309.9  340.3,309.3  340.4,308.7  340.5,308.1  340.6,307.5  340.7,306.9  340.8,306.3  340.8,305.7  340.9,305.1  340.9,304.5  341.0,303.9  341.0,303.3  341.0,302.7  341.1,302.1  341.1,301.5  341.1,300.9  341.1,300.3  341.1,299.7  341.1,299.1  341.1,298.5  341.1,297.9  341.0,297.3  341.0,296.7  341.0,296.1  340.9,295.5  340.9,294.9  340.8,294.3  340.8,293.7  340.7,293.1  340.6,292.5  340.5,291.9  340.4,291.3  340.3,290.7  340.2,290.1  340.1,289.5  340.0,288.9  339.9,288.3  339.8,287.7  339.6,287.1  339.5,286.5  339.3,285.9  339.2,285.3  339.0,284.7  338.8,284.0  338.7,283.4  338.5,282.8  338.3,282.2  338.1,281.6  337.9,281.0  337.7,280.3  337.4,279.7  337.2,279.1  337.0,278.5  336.7,277.9  336.4,277.2  336.2,276.6  335.9,276.0  335.6,275.3  335.3,274.7  335.0,274.1  334.7,273.4  334.4,272.8  334.1,272.2  333.7,271.5  333.4,270.9  333.0,270.2  332.7,269.6  332.3,268.9  331.9,268.3  331.5,267.6  331.1,267.0  330.6,266.3  330.2,265.7  329.8,265.0  329.3,264.3  328.8,263.7  328.4,263.0  327.9,262.3  327.4,261.7  326.8,261.0  326.3,260.3  325.8,259.7  325.2,259.0  324.6,258.3  324.0,257.6  323.4,256.9  322.8,256.2  322.2,255.5  321.5,254.9  320.8,254.2  320.1,253.5  319.4,252.8  318.7,252.1  318.0,251.4  317.2,250.7  316.4,250.0  315.6,249.3  314.8,248.6  314.0,247.9  313.1,247.1  312.3,246.4  311.4,245.7  310.4,245.0  309.5,244.3  308.5,243.6  307.5,242.9  306.5,242.2  305.5,241.5  304.4,240.8  303.3,240.0  302.2,239.3  301.0,238.6  299.8,237.9  298.6,237.2  297.4,236.5  296.1,235.8  294.8,235.1  293.5,234.4  292.1,233.8  290.7,233.1  289.3,232.4  287.8,231.7  286.3,231.1  284.8,230.4  283.2,229.7  281.6,229.1  279.9,228.5  278.2,227.8  276.5,227.2  274.7,226.6  272.9,226.0  271.0,225.5  269.1,224.9  267.2,224.3  265.2,223.8  263.1,223.3  261.0,222.8  258.9,222.3  256.7,221.9  254.5,221.5  252.2,221.0  249.8,220.7  247.4,220.3  245.0,220.0  242.5,219.7  240.0,219.5  237.4,219.3  234.7,219.1  232.0,218.9  229.3,218.8  226.5,218.8  223.7,218.8  220.8,218.8  217.8,218.9  214.8,219.1  211.8,219.3  208.7,219.6  205.6,219.9  202.5,220.3  199.3,220.8  196.0,221.3  192.8,222.0  189.5,222.6  186.2,223.4  182.9,224.3  179.6,225.2  176.2,226.3  172.9,227.4  169.5,228.6  166.2,229.9  162.9,231.3  159.6,232.8  156.3,234.5  153.1,236.2  149.9,238.0  146.8,239.9  143.7,241.9  140.7,244.0  137.8,246.3  135.0,248.6  132.3,251.0  129.6,253.5  127.1,256.2  124.8,258.9  122.5,261.7  120.4,264.5  118.5,267.5  116.7,270.5  115.0,273.6  113.6,276.8  112.3,280.0  111.2,283.3  110.4,286.6  109.7,289.9  109.2,293.2  108.9,296.6  108.8,300.0  "
     id="polyline4665-2" />
  <text
     style="font-size:8px"
     x="271.08569"
     y="273.47824"
     font-size="8.0"
     id="text4657-9-3">e=0</text>
</svg>
